:SAMPLES-PER-SECOND 30
:FULLY-SPECIFIED
:DEGREES
63
root  20.8872 36.4074 1.48626 -168.59 87.4711 -158.513
RightUpLeg  6.77462 0.869348 4.45607
RightLeg  36.6388 6.51024 -2.77234
RightFoot  -28.5989 -0.0883561 -0.727486
RightToes  1.74622e-010 -1.59028e-015 9.93923e-017
Spine  10.9326 2.71932 8.41214
Spine1  16.286 5.88214 -6.719
HEad  10.976 -11.8497 5.18529
LeftShoulder1  9.93923e-017 0 1.22299e-017
LeftArm  23.1368 53.2942 -73.7834
LeftForeArm  -46.6248 -27.4692 18.7453
LeftHand  0.693648 5.00713 0.755193
RightShoulder  1.98785e-016 -4.96962e-017 1.55301e-017
RightArm  14.2304 -38.5579 93.0311
RightForeArm  -25.2129 29.8457 -27.9034
RightHand  1.31994 -12.1344 -3.85338
LeftUpLeg  -25.0306 -9.75507 -2.0612
LeftLeg  24.7948 -6.46549 1.46364
LeftFoot  12.3147 -0.806568 3.75492
LeftToes  -5.36576e-011 -1.15168e-011 3.25213e-012
64
root  22.7579 36.363 1.46206 176.014 85.8356 -175.713
RightUpLeg  5.82876 -2.11252 1.8506
RightLeg  41.0892 10.1659 0.215616
RightFoot  -23.0208 0.249241 3.12113
RightToes  1.74622e-010 -1.59028e-015 9.93923e-017
Spine  12.4251 1.86163 5.4466
Spine1  12.4465 4.12298 -6.06873
HEad  8.07636 -11.1461 5.05008
LeftShoulder1  9.93923e-017 0 1.22299e-017
LeftArm  19.7193 42.2955 -73.7017
LeftForeArm  -44.1001 -26.3714 16.7876
LeftHand  0.665836 4.82387 0.481404
RightShoulder  1.98785e-016 -4.96962e-017 1.55301e-017
RightArm  16.8729 -34.0082 94.6718
RightForeArm  -23.8327 32.7327 -30.245
RightHand  1.44159 -12.5322 -5.19098
LeftUpLeg  -25.3984 -13.6905 -3.3051
LeftLeg  28.6974 -5.6626 2.56266
LeftFoot  6.01117 -0.798966 4.74537
LeftToes  -5.36576e-011 -1.15168e-011 3.25213e-012
65
root  24.3705 36.4268 1.47288 158.194 83.503 164.58
RightUpLeg  2.11245 -4.18957 -1.31357
RightLeg  48.6136 12.3754 2.66511
RightFoot  -12.0692 -0.0733828 6.95158
RightToes  1.74622e-010 -1.59028e-015 9.93923e-017
Spine  14.2558 1.19565 1.33544
Spine1  9.01117 2.3255 -5.17385
HEad  6.23709 -10.4173 5.42781
LeftShoulder1  9.93923e-017 0 1.22299e-017
LeftArm  12.6949 30.1348 -74.4072
LeftForeArm  -37.532 -22.1548 9.85205
LeftHand  0.747648 5.32522 0.0347846
RightShoulder  1.98785e-016 -4.96962e-017 1.55301e-017
RightArm  17.2981 -30.5488 95.3404
RightForeArm  -27.4548 33.6212 -30.7197
RightHand  1.33519 -12.1475 -4.14396
LeftUpLeg  -26.5193 -16.5197 -5.48002
LeftLeg  32.1705 -4.42492 4.02196
LeftFoot  1.35706 -0.536273 4.12864
LeftToes  -5.36576e-011 -1.15168e-011 3.25213e-012
66
root  25.9204 36.7094 1.43461 147.045 83.1572 151.125
RightUpLeg  -3.78265 -2.41113 -2.87712
RightLeg  55.9889 12.5927 3.56674
RightFoot  0.302217 -1.19715 10.0308
RightToes  1.74622e-010 -1.59028e-015 9.93923e-017
Spine  14.1853 1.08169 -1.31451
Spine1  7.4642 1.68745 -5.75234
HEad  4.76369 -8.95618 5.97372
LeftShoulder1  9.93923e-017 0 1.22299e-017
LeftArm  6.11771 20.9593 -75.1713
LeftForeArm  -28.9932 -19.803 4.77555
LeftHand  0.736083 5.3886 1.15891
RightShoulder  1.98785e-016 -4.96962e-017 1.55301e-017
RightArm  17.1779 -28.8242 95.4078
RightForeArm  -31.2674 33.0586 -29.9911
RightHand  1.23486 -11.9013 -2.78542
LeftUpLeg  -26.2211 -17.3337 -6.74992
LeftLeg  32.3016 -3.42014 4.75344
LeftFoot  -0.635763 -0.358813 3.2005
LeftToes  -5.36576e-011 -1.15168e-011 3.25213e-012
